<?xml version="1.0" encoding="UTF-8" standalone="no"?>
<svg
   xmlns:dc="http://purl.org/dc/elements/1.1/"
   xmlns:cc="http://creativecommons.org/ns#"
   xmlns:rdf="http://www.w3.org/1999/02/22-rdf-syntax-ns#"
   xmlns:svg="http://www.w3.org/2000/svg"
   xmlns="http://www.w3.org/2000/svg"
   xmlns:sodipodi="http://sodipodi.sourceforge.net/DTD/sodipodi-0.dtd"
   xmlns:inkscape="http://www.inkscape.org/namespaces/inkscape"
   height="500"
   version="1.1"
   viewBox="0 0 500 500"
   width="500"
   id="svg3229"
   inkscape:version="0.48.2 r9819"
   sodipodi:docname="plot.svg">
  <metadata
     id="metadata3241">
    <rdf:RDF>
      <cc:Work
         rdf:about="">
        <dc:format>image/svg+xml</dc:format>
        <dc:type
           rdf:resource="http://purl.org/dc/dcmitype/StillImage" />
        <dc:title></dc:title>
      </cc:Work>
    </rdf:RDF>
  </metadata>
  <sodipodi:namedview
     pagecolor="#ffffff"
     bordercolor="#666666"
     borderopacity="1"
     objecttolerance="10"
     gridtolerance="10"
     guidetolerance="10"
     inkscape:pageopacity="0"
     inkscape:pageshadow="2"
     inkscape:window-width="640"
     inkscape:window-height="480"
     id="namedview3239"
     showgrid="false"
     inkscape:zoom="0.94215625"
     inkscape:cx="88.983051"
     inkscape:cy="334.74576"
     inkscape:window-x="0"
     inkscape:window-y="24"
     inkscape:window-maximized="0"
     inkscape:current-layer="svg3229" />
  <defs
     id="defs3231" />
  <path
     color="black"
     d="M 118.0 250 c -3.0 3.0 224.0 3.0 221.0 0  s 3.0 23.0 0 20 s -224.0 3.0 -221.0 0  s 3.0 -23.0 0 -20 Z"
     id="path3233" />
  <path
     color="black"
     d="M 10.0 250 c -3.0 3.0 7.0 3.0 4.0 0  s 3.0 23.0 0 20 s -7.0 3.0 -4.0 0  s 3.0 -23.0 0 -20 Z"
     id="path3235" />
  <path
     color="black"
     d="M 227.0 250 c -3.0 3.0 43.0 3.0 40.0 0  s 3.0 23.0 0 20 s -43.0 3.0 -40.0 0  s 3.0 -23.0 0 -20 Z"
     id="path3237" />
</svg>
