<?xml version="1.0" encoding="utf-8" ?>
<svg baseProfile="full" height="500" version="1.1" viewBox="0 0 500 500" width="500" xmlns="http://www.w3.org/2000/svg" xmlns:ev="http://www.w3.org/2001/xml-events" xmlns:xlink="http://www.w3.org/1999/xlink"><defs /><path color="black" d="M 118.0 250 c 0.0 -0.0 221.0 -0.0 221.0 0  s 0.0 20.0 0 20 s -221.0 0.0 -221.0 0  s -0.0 -20.0 0 -20 Z" /><path color="black" d="M 10.0 250 c 0.0 -0.0 4.0 -0.0 4.0 0  s 0.0 20.0 0 20 s -4.0 0.0 -4.0 0  s -0.0 -20.0 0 -20 Z" /><path color="black" d="M 227.0 250 c 0.0 -0.0 40.0 -0.0 40.0 0  s 0.0 20.0 0 20 s -40.0 0.0 -40.0 0  s -0.0 -20.0 0 -20 Z" /></svg>