<?xml version="1.0" encoding="UTF-8" standalone="no"?>
<svg
   xmlns:dc="http://purl.org/dc/elements/1.1/"
   xmlns:cc="http://creativecommons.org/ns#"
   xmlns:rdf="http://www.w3.org/1999/02/22-rdf-syntax-ns#"
   xmlns:svg="http://www.w3.org/2000/svg"
   xmlns="http://www.w3.org/2000/svg"
   xmlns:sodipodi="http://sodipodi.sourceforge.net/DTD/sodipodi-0.dtd"
   xmlns:inkscape="http://www.inkscape.org/namespaces/inkscape"
   height="500"
   version="1.1"
   viewBox="0 0 500 500"
   width="500"
   id="svg3182"
   inkscape:version="0.48.2 r9819"
   sodipodi:docname="plot.svg">
  <metadata
     id="metadata3194">
    <rdf:RDF>
      <cc:Work
         rdf:about="">
        <dc:format>image/svg+xml</dc:format>
        <dc:type
           rdf:resource="http://purl.org/dc/dcmitype/StillImage" />
        <dc:title></dc:title>
      </cc:Work>
    </rdf:RDF>
  </metadata>
  <sodipodi:namedview
     pagecolor="#ffffff"
     bordercolor="#666666"
     borderopacity="1"
     objecttolerance="10"
     gridtolerance="10"
     guidetolerance="10"
     inkscape:pageopacity="0"
     inkscape:pageshadow="2"
     inkscape:window-width="1280"
     inkscape:window-height="776"
     id="namedview3192"
     showgrid="false"
     inkscape:zoom="2.7357673"
     inkscape:cx="219.73991"
     inkscape:cy="269.50566"
     inkscape:window-x="0"
     inkscape:window-y="24"
     inkscape:window-maximized="1"
     inkscape:current-layer="svg3182" />
  <defs
     id="defs3184" />
  <path
     d="m 116.4492,205.02667 c 85.73096,-19.90199 208.36473,-4.8715 221,0 4.75584,1.8336 10,20 0,20 -10,0 -210.26934,12.75402 -219.4492,8.78789 -8.78789,-3.79678 -11.29177,-26.52657 -1.5508,-28.78789 z"
     id="path3186"
     inkscape:connector-curvature="0"
     style="color:#000000"
     sodipodi:nodetypes="sssss" />
  <path
     color="black"
     d="M 10.0 250 c 10 0, 14.0 0 4.0 0  s 10 20 0 20 s -4.0 10 -4.0 0  s -10 -20 0 -20 Z"
     id="path3188" />
  <path
     color="black"
     d="M 227.0 250 c 10 0, 50.0 0 40.0 0  s 10 20 0 20 s -40.0 10 -40.0 0  s -10 -20 0 -20 Z"
     id="path3190" />
</svg>
